name C:\Users\antoi\Documents\MyRepositories\upper-imu-dc\Results\main_tracking\Case_79\ABD01_linearAccelerations_groundFrame.mot
datacolumns 4
datarows 94
range 7.88000000 8.81000000
endheader 
time	radius_imu_x	radius_imu_y	radius_imu_z	
          7.88000000	         -0.18313420	          8.48083842	         -0.33332730	
          7.89000000	         -0.30317792	          8.52961962	         -0.38666195	
          7.90000000	         -0.43056476	          8.59155700	         -0.44356400	
          7.91000000	         -0.56338646	          8.66694613	         -0.50339918	
          7.92000000	         -0.69931683	          8.75562775	         -0.56536473	
          7.93000000	         -0.83566542	          8.85693504	         -0.62853874	
          7.94000000	         -0.96961977	          8.96951903	         -0.69177792	
          7.95000000	         -1.09814708	          9.09128751	         -0.75378718	
          7.96000000	         -1.21819192	          9.21971534	         -0.81320313	
          7.97000000	         -1.32695380	          9.35178145	         -0.86875960	
          7.98000000	         -1.42138114	          9.48361954	         -0.91920767	
          7.99000000	         -1.49882624	          9.61165007	         -0.96362705	
          8.00000000	         -1.55706801	          9.73357769	         -1.00154652	
          8.01000000	         -1.59428239	          9.84678469	         -1.03276464	
          8.02000000	         -1.61045717	          9.94847341	         -1.05726105	
          8.03000000	         -1.60551366	         10.03766452	         -1.07535112	
          8.04000000	         -1.57997366	         10.11459701	         -1.08775990	
          8.05000000	         -1.53534932	         10.18083182	         -1.09543987	
          8.06000000	         -1.47315281	         10.23710348	         -1.09920563	
          8.07000000	         -1.39605641	         10.28412376	         -1.09947738	
          8.08000000	         -1.30639448	         10.32209712	         -1.09701238	
          8.09000000	         -1.20601554	         10.35254512	         -1.09228312	
          8.10000000	         -1.09736500	         10.37671874	         -1.08557674	
          8.11000000	         -0.98260487	         10.39466441	         -1.07697229	
          8.12000000	         -0.86413412	         10.40650904	         -1.06652947	
          8.13000000	         -0.74379460	         10.41240935	         -1.05422048	
          8.14000000	         -0.62274230	         10.41210960	         -1.04000061	
          8.15000000	         -0.50191493	         10.40517827	         -1.02386968	
          8.16000000	         -0.38195447	         10.39113653	         -1.00587687	
          8.17000000	         -0.26328699	         10.36948788	         -0.98611845	
          8.18000000	         -0.14626856	         10.33981688	         -0.96472780	
          8.19000000	         -0.03126058	         10.30195859	         -0.94194043	
          8.20000000	          0.08115767	         10.25607207	         -0.91809231	
          8.21000000	          0.19002346	         10.20267733	         -0.89360322	
          8.22000000	          0.29402422	         10.14258907	         -0.86894777	
          8.23000000	          0.39177675	         10.07680109	         -0.84465908	
          8.24000000	          0.48185232	         10.00637149	         -0.82126360	
          8.25000000	          0.56302499	          9.93234146	         -0.79927502	
          8.26000000	          0.63441484	          9.85567730	         -0.77918763	
          8.27000000	          0.69562836	          9.77730912	         -0.76148425	
          8.28000000	          0.74672375	          9.69820972	         -0.74664683	
          8.29000000	          0.78810432	          9.61949025	         -0.73514485	
          8.30000000	          0.82034565	          9.54242828	         -0.72740395	
          8.31000000	          0.84399271	          9.46843513	         -0.72376335	
          8.32000000	          0.85947002	          9.39894517	         -0.72443414	
          8.33000000	          0.86703931	          9.33531946	         -0.72948039	
          8.34000000	          0.86668044	          9.27882308	         -0.73881673	
          8.35000000	          0.85835705	          9.23032275	         -0.75220554	
          8.36000000	          0.84201142	          9.19043697	         -0.76929998	
          8.37000000	          0.81748040	          9.15972184	         -0.78965401	
          8.38000000	          0.78471633	          9.13871276	         -0.81271375	
          8.39000000	          0.74367825	          9.12790072	         -0.83784863	
          8.40000000	          0.69443659	          9.12775507	         -0.86436248	
          8.41000000	          0.63713367	          9.13864924	         -0.89152074	
          8.42000000	          0.57198490	          9.16070942	         -0.91856921	
          8.43000000	          0.49932484	          9.19371840	         -0.94478440	
          8.44000000	          0.41968400	          9.23694946	         -0.96950938	
          8.45000000	          0.33386206	          9.28915187	         -0.99216458	
          8.46000000	          0.24298408	          9.34862932	         -1.01231244	
          8.47000000	          0.14854644	          9.41337575	         -1.02966087	
          8.48000000	          0.05231300	          9.48129447	         -1.04407941	
          8.49000000	         -0.04356740	          9.55051874	         -1.05553623	
          8.50000000	         -0.13682929	          9.61945237	         -1.06414484	
          8.51000000	         -0.22479525	          9.68630849	         -1.07020408	
          8.52000000	         -0.30516396	          9.75057242	         -1.07367188	
          8.53000000	         -0.37539600	          9.81174527	         -1.07476580	
          8.54000000	         -0.43339136	          9.86966173	         -1.07359536	
          8.55000000	         -0.47739775	          9.92471870	         -1.07012895	
          8.56000000	         -0.50608528	          9.97750968	         -1.06426756	
          8.57000000	         -0.51875468	         10.02853893	         -1.05592416	
          8.58000000	         -0.51529565	         10.07806013	         -1.04507559	
          8.59000000	         -0.49628785	         10.12590883	         -1.03179935	
          8.60000000	         -0.46281159	         10.17155631	         -1.01638240	
          8.61000000	         -0.41633595	         10.21426916	         -0.99921172	
          8.62000000	         -0.35865289	         10.25331946	         -0.98074100	
          8.63000000	         -0.29169693	         10.28829346	         -0.96138823	
          8.64000000	         -0.21753019	         10.31925432	         -0.94145071	
          8.65000000	         -0.13836301	         10.34675858	         -0.92103335	
          8.66000000	         -0.05662384	         10.37179900	         -0.90002039	
          8.67000000	          0.02506733	         10.39565224	         -0.87808644	
          8.68000000	          0.10397161	         10.41968471	         -0.85472900	
          8.69000000	          0.17738871	         10.44515194	         -0.82935310	
          8.70000000	          0.24288240	         10.47302223	         -0.80140384	
          8.71000000	          0.29849411	         10.50385917	         -0.77048829	
          8.72000000	          0.34292223	         10.53770004	         -0.73644915	
          8.73000000	          0.37561546	         10.57389429	         -0.69951895	
          8.74000000	          0.39664084	         10.61148265	         -0.66026904	
          8.75000000	          0.40661508	         10.64924981	         -0.61948175	
          8.76000000	          0.40660812	         10.68574868	         -0.57809587	
          8.77000000	          0.39792428	         10.71981890	         -0.53698777	
          8.78000000	          0.38196156	         10.75053026	         -0.49696151	
          8.79000000	          0.36003197	         10.77709368	         -0.45880974	
          8.80000000	          0.33335586	         10.79873262	         -0.42342535	
          8.81000000	          0.30348448	         10.81591610	         -0.39087688	
